<?xml version="1.0" encoding="UTF-8"?>
<svg xmlns="http://www.w3.org/2000/svg" xmlns:xlink="http://www.w3.org/1999/xlink" width="24pt" height="24pt" viewBox="0 0 24 24" version="1.1">
<g id="surface1">
<path style=" stroke:none;fill-rule:nonzero;fill:rgb(255,255,255);fill-opacity:1;" d="M 10.640625 1.40625 L 9.9375 1.40625 L 9.9375 8.507812 C 12.320312 8.851562 14.15625 10.882812 14.15625 13.359375 L 14.15625 14.140625 C 14.398438 14.09375 14.644531 14.0625 14.894531 14.0625 C 15.976562 14.0625 16.992188 14.519531 17.707031 15.308594 C 18.246094 14.714844 18.953125 14.308594 19.730469 14.144531 C 19.605469 12.285156 18.957031 10.53125 17.773438 9.058594 C 17.53125 8.753906 17.582031 8.3125 17.882812 8.070312 C 18.1875 7.828125 18.628906 7.875 18.871094 8.179688 C 20.230469 9.875 21 11.972656 21.132812 14.132812 C 22.09375 14.292969 22.96875 14.792969 23.558594 15.585938 C 23.71875 15.605469 23.855469 15.671875 24 15.726562 L 24 14.765625 C 24 7.398438 18.007812 1.40625 10.640625 1.40625 Z M 15.871094 10.9375 C 15.527344 11.105469 15.105469 10.960938 14.933594 10.609375 C 14.273438 9.25 13.148438 8.164062 11.765625 7.558594 C 11.410156 7.402344 11.246094 6.988281 11.402344 6.632812 C 11.558594 6.277344 11.972656 6.113281 12.328125 6.269531 C 14.019531 7.011719 15.394531 8.335938 16.199219 9.996094 C 16.367188 10.34375 16.222656 10.765625 15.871094 10.9375 Z M 15.871094 10.9375 "/>
<path style=" stroke:none;fill-rule:nonzero;fill:rgb(255,255,255);fill-opacity:1;" d="M 23.308594 16.972656 C 22.984375 16.96875 22.691406 16.808594 22.511719 16.535156 C 22.066406 15.867188 21.320312 15.46875 20.519531 15.46875 C 19.71875 15.46875 18.972656 15.867188 18.527344 16.535156 C 18.15625 17.09375 17.257812 17.09375 16.886719 16.535156 C 16.441406 15.867188 15.695312 15.46875 14.894531 15.46875 C 14.09375 15.46875 13.347656 15.867188 12.902344 16.535156 C 12.53125 17.09375 11.632812 17.09375 11.261719 16.535156 C 10.816406 15.867188 10.070312 15.46875 9.269531 15.46875 C 8.46875 15.46875 7.722656 15.867188 7.277344 16.535156 C 6.90625 17.09375 6.007812 17.09375 5.636719 16.535156 C 5.191406 15.867188 4.445312 15.46875 3.644531 15.46875 C 2.84375 15.46875 2.050781 15.867188 1.605469 16.535156 C 1.414062 16.820312 1.058594 16.957031 0.71875 16.972656 C 0.519531 16.964844 0.347656 17.042969 0.210938 17.175781 C 0.078125 17.308594 0 17.488281 0 17.675781 L 0 19.417969 C 0.40625 19.886719 1.253906 19.875 1.605469 19.347656 C 2.050781 18.679688 2.84375 18.28125 3.644531 18.28125 C 4.445312 18.28125 5.191406 18.679688 5.636719 19.347656 C 6.003906 19.902344 6.886719 19.902344 7.265625 19.359375 C 7.269531 19.355469 7.273438 19.351562 7.277344 19.347656 C 7.613281 18.847656 8.113281 18.496094 8.683594 18.355469 C 8.871094 18.308594 9.070312 18.28125 9.269531 18.28125 C 10.070312 18.28125 10.816406 18.679688 11.261719 19.347656 C 11.632812 19.90625 12.53125 19.90625 12.902344 19.347656 C 13.347656 18.679688 14.09375 18.28125 14.894531 18.28125 C 15.695312 18.28125 16.441406 18.679688 16.886719 19.347656 C 17.257812 19.90625 18.15625 19.90625 18.527344 19.347656 C 18.972656 18.679688 19.71875 18.28125 20.519531 18.28125 C 21.320312 18.28125 22.066406 18.679688 22.511719 19.347656 C 22.84375 19.847656 23.578125 19.875 24 19.480469 L 24 17.675781 C 24 17.292969 23.695312 16.980469 23.308594 16.972656 Z M 23.308594 16.972656 "/>
<path style=" stroke:none;fill-rule:nonzero;fill:rgb(255,255,255);fill-opacity:1;" d="M 23.332031 21.191406 C 22.53125 21.191406 21.785156 20.796875 21.339844 20.128906 C 20.96875 19.570312 20.070312 19.570312 19.699219 20.128906 C 18.746094 21.554688 16.65625 21.535156 15.714844 20.128906 C 15.34375 19.570312 14.445312 19.570312 14.074219 20.128906 C 13.628906 20.796875 12.882812 21.191406 12.082031 21.191406 C 11.28125 21.191406 10.535156 20.796875 10.089844 20.128906 C 9.71875 19.570312 8.820312 19.570312 8.449219 20.128906 C 7.523438 21.515625 5.40625 21.539062 4.464844 20.128906 C 4.09375 19.570312 3.195312 19.570312 2.824219 20.128906 C 2.378906 20.796875 1.539062 21.191406 0.738281 21.191406 C 0.480469 21.191406 0.238281 21.140625 0 21.0625 L 0 23.296875 C 0 23.683594 0.316406 24 0.703125 24 L 23.296875 24 C 23.683594 24 24 23.683594 24 23.296875 L 24 21.089844 C 23.785156 21.152344 23.5625 21.191406 23.332031 21.191406 Z M 23.332031 21.191406 "/>
<path style=" stroke:none;fill-rule:nonzero;fill:rgb(255,255,255);fill-opacity:1;" d="M 7.125 0 L 5.71875 0 C 4.941406 0 4.3125 0.628906 4.3125 1.40625 L 4.3125 8.4375 C 4.3125 9.214844 4.941406 9.84375 5.71875 9.84375 L 7.125 9.84375 C 7.902344 9.84375 8.53125 9.214844 8.53125 8.4375 L 8.53125 1.40625 C 8.53125 0.628906 7.902344 0 7.125 0 Z M 7.125 0 "/>
<path style=" stroke:none;fill-rule:nonzero;fill:rgb(255,255,255);fill-opacity:1;" d="M 0.703125 1.40625 C 0.316406 1.40625 0 1.722656 0 2.109375 L 0 7.734375 C 0 8.121094 0.316406 8.4375 0.703125 8.4375 L 2.90625 8.4375 L 2.90625 1.40625 Z M 0.703125 1.40625 "/>
</g>
</svg>
